<svg xmlns="http://www.w3.org/2000/svg" viewBox="0 0 400 400">
  <rect width="400" height="400" fill="#0f2419"/>
  <rect x="0" y="320" width="400" height="80" fill="#1a3a2a"/>
  <polygon points="80,320 120,180 160,320" fill="#166534"/>
  <polygon points="60,320 120,150 180,320" fill="#15803d" opacity="0.7"/>
  <polygon points="180,320 220,140 260,320" fill="#166534"/>
  <polygon points="160,320 220,120 280,320" fill="#15803d" opacity="0.7"/>
  <polygon points="280,320 320,170 360,320" fill="#166534"/>
  <polygon points="260,320 320,140 380,320" fill="#15803d" opacity="0.7"/>
  <polygon points="0,320 40,200 80,320" fill="#14532d" opacity="0.6"/>
  <polygon points="340,320 370,210 400,320" fill="#14532d" opacity="0.6"/>
  <circle cx="200" cy="100" r="35" fill="#fde68a" opacity="0.15"/>
  <circle cx="200" cy="100" r="20" fill="#fde68a" opacity="0.3"/>
  <line x1="200" y1="130" x2="200" y2="320" stroke="#fde68a" stroke-width="3" opacity="0.08"/>
</svg>
